<svg width="47" height="38" viewBox="0 0 47 38" fill="none" xmlns="http://www.w3.org/2000/svg">
<path d="M21.6345 18.912C21.6345 19.2578 21.7353 19.5959 21.924 19.8834C22.1128 20.171 22.381 20.395 22.6948 20.5272C23.0087 20.6593 23.3539 20.6938 23.687 20.626C24.02 20.5583 24.3258 20.3915 24.5657 20.1467C24.8056 19.9019 24.9688 19.5901 25.0346 19.2508C25.1004 18.9115 25.066 18.5599 24.9355 18.2406C24.8051 17.9213 24.5846 17.6486 24.3018 17.4569C24.0191 17.2653 23.687 17.1634 23.3474 17.1641C22.8928 17.165 22.4571 17.3496 22.136 17.6773C21.8149 18.005 21.6345 18.449 21.6345 18.912Z" fill="url(#paint0_linear_586_1731)"/>
<path d="M23.3472 24.375C23.0077 24.375 22.6759 24.4775 22.3936 24.6696C22.1114 24.8617 21.8914 25.1346 21.7615 25.454C21.6316 25.7734 21.5976 26.1248 21.6639 26.4639C21.7301 26.803 21.8935 27.1144 22.1335 27.3589C22.3736 27.6033 22.6794 27.7698 23.0123 27.8372C23.3453 27.9047 23.6903 27.8701 24.004 27.7378C24.3176 27.6055 24.5856 27.3814 24.7742 27.094C24.9628 26.8065 25.0635 26.4686 25.0635 26.1229C25.0635 25.6593 24.8827 25.2147 24.5608 24.887C24.2389 24.5592 23.8024 24.375 23.3472 24.375Z" fill="url(#paint1_linear_586_1731)"/>
<path d="M28.6143 17.1641C28.2748 17.1641 27.943 17.2666 27.6607 17.4587C27.3785 17.6507 27.1585 17.9237 27.0286 18.2431C26.8987 18.5625 26.8647 18.9139 26.9309 19.253C26.9971 19.592 27.1606 19.9035 27.4007 20.1479C27.6407 20.3924 27.9465 20.5588 28.2794 20.6263C28.6124 20.6937 28.9575 20.6591 29.271 20.5268C29.5847 20.3945 29.8527 20.1705 30.0413 19.883C30.2299 19.5956 30.3306 19.2577 30.3306 18.912C30.3306 18.4484 30.1497 18.0038 29.8279 17.676C29.506 17.3482 29.0694 17.1641 28.6143 17.1641Z" fill="url(#paint2_linear_586_1731)"/>
<path d="M23.3474 13.3552C23.687 13.3559 24.0191 13.2539 24.3018 13.0623C24.5846 12.8707 24.8051 12.598 24.9355 12.2786C25.066 11.9593 25.1004 11.6077 25.0346 11.2685C24.9688 10.9292 24.8056 10.6174 24.5657 10.3726C24.3258 10.1278 24.02 9.96096 23.687 9.89324C23.3539 9.82548 23.0087 9.8599 22.6948 9.99209C22.381 10.1243 22.1128 10.3483 21.924 10.6358C21.7353 10.9233 21.6345 11.2614 21.6345 11.6073C21.6345 12.0702 21.8149 12.5143 22.136 12.842C22.4571 13.1697 22.8928 13.3542 23.3474 13.3552Z" fill="url(#paint3_linear_586_1731)"/>
<path d="M19.7617 18.7128C19.7617 18.367 19.661 18.0291 19.4724 17.7416C19.2839 17.4542 19.0158 17.2302 18.7022 17.0979C18.3886 16.9656 18.0435 16.931 17.7106 16.9984C17.3776 17.0659 17.0718 17.2323 16.8318 17.4768C16.5918 17.7212 16.4283 18.0327 16.3621 18.3717C16.2959 18.7108 16.3298 19.0623 16.4597 19.3816C16.5896 19.701 16.8096 19.974 17.0919 20.1661C17.3741 20.3581 17.7059 20.4607 18.0454 20.4607C18.5006 20.4607 18.9371 20.2765 19.259 19.9487C19.5809 19.6209 19.7617 19.1763 19.7617 18.7128Z" fill="url(#paint4_linear_586_1731)"/>
<path d="M27.2524 21.2937C26.6384 20.6646 26.2938 19.8136 26.2938 18.9266C26.2938 18.0396 26.6384 17.1886 27.2524 16.5595C27.4917 16.3148 27.6545 16.0034 27.7202 15.6645C27.7859 15.3256 27.7515 14.9745 27.6214 14.6555C27.4913 14.3366 27.2713 14.064 26.9892 13.8722C26.7071 13.6805 26.3756 13.5781 26.0364 13.5781C25.6972 13.5781 25.3656 13.6805 25.0836 13.8722C24.8015 14.064 24.5815 14.3366 24.4514 14.6555C24.3213 14.9745 24.2869 15.3256 24.3525 15.6645C24.4182 16.0034 24.581 16.3148 24.8204 16.5595C25.1288 16.8707 25.3736 17.2411 25.5407 17.6492C25.7077 18.0573 25.7938 18.4951 25.7938 18.9373C25.7938 19.3794 25.7077 19.8172 25.5407 20.2253C25.3736 20.6334 25.1288 21.0037 24.8204 21.315C24.581 21.5597 24.4182 21.8711 24.3525 22.21C24.2869 22.5489 24.3213 22.9 24.4514 23.219C24.5815 23.538 24.8015 23.8105 25.0836 24.0023C25.3656 24.1941 25.6972 24.2964 26.0364 24.2964C26.3756 24.2964 26.7071 24.1941 26.9892 24.0023C27.2713 23.8105 27.4913 23.538 27.6214 23.219C27.7515 22.9 27.7859 22.5489 27.7202 22.21C27.6545 21.8711 27.4917 21.5597 27.2524 21.315V21.2937Z" fill="url(#paint5_linear_586_1731)"/>
<path d="M22.3121 22.3145C22.3103 21.8556 22.1334 21.4153 21.8188 21.0867C21.2048 20.4576 20.8602 19.6066 20.8602 18.7196C20.8602 17.8326 21.2048 16.9816 21.8188 16.3525C22.0582 16.1078 22.2209 15.7963 22.2866 15.4575C22.3523 15.1186 22.3179 14.7675 22.1878 14.4485C22.0577 14.1295 21.8377 13.857 21.5556 13.6652C21.2735 13.4735 20.9419 13.3711 20.6028 13.3711C20.2636 13.3711 19.9321 13.4735 19.6499 13.6652C19.3679 13.857 19.1479 14.1295 19.0178 14.4485C18.8877 14.7675 18.8533 15.1186 18.919 15.4575C18.9846 15.7963 19.1474 16.1078 19.3868 16.3525C19.6947 16.6637 19.939 17.0338 20.1058 17.4416C20.2726 17.8494 20.3584 18.2867 20.3584 18.7285C20.3584 19.1702 20.2726 19.6076 20.1058 20.0154C19.939 20.4231 19.6947 20.7933 19.3868 21.1044C19.1892 21.3088 19.044 21.5595 18.964 21.8346C18.8841 22.1095 18.8718 22.4004 18.9283 22.6814C18.9848 22.9623 19.1083 23.2248 19.288 23.4457C19.4676 23.6666 19.6979 23.8391 19.9584 23.9479C20.219 24.0568 20.5018 24.0987 20.782 24.0699C21.0622 24.0411 21.3312 23.9425 21.5652 23.7828C21.7991 23.6231 21.9909 23.4073 22.1236 23.1543C22.2563 22.9013 22.3258 22.619 22.326 22.3322L22.3121 22.3145Z" fill="url(#paint6_linear_586_1731)"/>
<path d="M8.33838 32.4455C8.33928 32.7112 8.39881 32.9655 8.50399 33.1533C8.60917 33.3412 8.75161 33.4475 8.90037 33.4491H9.94108C10.0821 33.4689 10.2137 33.5829 10.3097 33.7683C10.4057 33.9538 10.4589 34.197 10.4589 34.4495C10.4589 34.7021 10.4057 34.9453 10.3097 35.1307C10.2137 35.3161 10.0821 35.4301 9.94108 35.4499H10.0105C9.86143 35.4499 9.71847 35.5557 9.61308 35.7439C9.50769 35.9321 9.44847 36.1874 9.44847 36.4535C9.44847 36.7197 9.50769 36.9749 9.61308 37.1631C9.71847 37.3513 9.86143 37.457 10.0105 37.457H19.2416C19.3907 37.457 19.5336 37.3513 19.639 37.1631C19.7444 36.9749 19.8036 36.7197 19.8036 36.4535C19.8036 36.1874 19.7444 35.9321 19.639 35.7439C19.5336 35.5557 19.3907 35.4499 19.2416 35.4499H16.3137C16.2365 35.4609 16.1588 35.443 16.0855 35.3977C16.0123 35.3523 15.9451 35.2804 15.8881 35.1865C15.8312 35.0925 15.7858 34.9785 15.7547 34.8517C15.7237 34.7249 15.7076 34.588 15.7076 34.4495C15.7076 34.3111 15.7237 34.1742 15.7547 34.0473C15.7858 33.9205 15.8312 33.8066 15.8881 33.7126C15.9451 33.6186 16.0123 33.5467 16.0855 33.5013C16.1588 33.456 16.2365 33.4382 16.3137 33.4491H18.1176C18.2667 33.4491 18.4096 33.3434 18.515 33.1551C18.6204 32.9669 18.6796 32.7117 18.6796 32.4455C18.6796 32.1794 18.6204 31.9241 18.515 31.7359C18.4096 31.5477 18.2667 31.442 18.1176 31.442H8.89343C8.74558 31.4453 8.60442 31.5524 8.50052 31.7403C8.39663 31.9281 8.33838 32.1815 8.33838 32.4455ZM14.9677 34.4464C14.9682 34.5784 14.954 34.7093 14.9259 34.8314C14.8978 34.9536 14.8564 35.0645 14.8042 35.1579C14.7519 35.2512 14.6897 35.3251 14.6213 35.3752C14.553 35.4254 14.4797 35.4508 14.4057 35.4499H11.8733C11.796 35.4609 11.7183 35.443 11.6451 35.3977C11.5719 35.3523 11.5047 35.2804 11.4478 35.1865C11.3908 35.0925 11.3454 34.9785 11.3143 34.8517C11.2833 34.7249 11.2672 34.588 11.2672 34.4495C11.2672 34.3111 11.2833 34.1742 11.3143 34.0473C11.3454 33.9205 11.3908 33.8066 11.4478 33.7126C11.5047 33.6186 11.5719 33.5467 11.6451 33.5013C11.7183 33.456 11.796 33.4382 11.8733 33.4491H14.4057C14.4794 33.4483 14.5524 33.4734 14.6205 33.5232C14.6887 33.573 14.7507 33.6463 14.8029 33.739C14.8552 33.8317 14.8966 33.9419 14.9249 34.0633C14.9532 34.1847 14.9677 34.3149 14.9677 34.4464Z" fill="#F2F2F2"/>
<path d="M27.0996 1.3088C27.1005 1.57449 27.16 1.82879 27.2652 2.01661C27.3704 2.20449 27.5128 2.31073 27.6616 2.31234H28.7023C28.8433 2.33217 28.9749 2.44621 29.0709 2.63162C29.1669 2.81709 29.2202 3.06029 29.2202 3.31279C29.2202 3.56535 29.1669 3.80855 29.0709 3.99395C28.9749 4.17942 28.8433 4.29341 28.7023 4.31323H28.7717C28.6227 4.31323 28.4797 4.41897 28.3743 4.60717C28.2689 4.79536 28.2097 5.05065 28.2097 5.31677C28.2097 5.58296 28.2689 5.83818 28.3743 6.02637C28.4797 6.21457 28.6227 6.32031 28.7717 6.32031L38.0028 6.32031C38.1519 6.32031 38.2948 6.21457 38.4002 6.02637C38.5056 5.83818 38.5648 5.58296 38.5648 5.31677C38.5648 5.05065 38.5056 4.79536 38.4002 4.60717C38.2948 4.41897 38.1519 4.31323 38.0028 4.31323L35.0749 4.31323C34.9977 4.32413 34.92 4.30629 34.8467 4.26095C34.7735 4.2156 34.7063 4.14368 34.6494 4.04977C34.5924 3.9558 34.547 3.84181 34.5159 3.71501C34.4849 3.58814 34.4688 3.45124 34.4688 3.31279C34.4688 3.1744 34.4849 3.03743 34.5159 2.91063C34.547 2.78382 34.5924 2.66984 34.6494 2.57587C34.7063 2.48189 34.7735 2.40997 34.8467 2.36463C34.92 2.31928 34.9977 2.3015 35.0749 2.31234L36.8788 2.31234C37.0279 2.31234 37.1708 2.20666 37.2762 2.0184C37.3816 1.83021 37.4408 1.57499 37.4408 1.3088C37.4408 1.04268 37.3816 0.787395 37.2762 0.5992C37.1708 0.411005 37.0279 0.305262 36.8788 0.305262L27.6547 0.305262C27.5068 0.308546 27.3657 0.415651 27.2618 0.603536C27.1579 0.791359 27.0996 1.04478 27.0996 1.3088ZM33.729 3.30969C33.7294 3.4417 33.7152 3.57259 33.6871 3.69469C33.6591 3.81685 33.6177 3.9278 33.5654 4.02115C33.5131 4.11451 33.451 4.18841 33.3826 4.23852C33.3142 4.28864 33.2409 4.31403 33.167 4.31323L30.6346 4.31323C30.5573 4.32413 30.4796 4.30629 30.4063 4.26095C30.3331 4.2156 30.2659 4.14368 30.209 4.04977C30.1521 3.9558 30.1066 3.84181 30.0756 3.71501C30.0445 3.58814 30.0285 3.45124 30.0285 3.31279C30.0285 3.1744 30.0445 3.03743 30.0756 2.91063C30.1066 2.78382 30.1521 2.66984 30.209 2.57587C30.2659 2.48189 30.3331 2.40997 30.4063 2.36463C30.4796 2.31928 30.5573 2.3015 30.6346 2.31234L33.167 2.31234C33.2406 2.31154 33.3136 2.33669 33.3818 2.38649C33.4499 2.43624 33.5119 2.50958 33.5641 2.60226C33.6164 2.69499 33.6578 2.80519 33.6861 2.92655C33.7144 3.04796 33.729 3.17818 33.729 3.30969Z" fill="#F2F2F2"/>
<path d="M3.47438 24.6609C3.47438 24.7919 3.4889 24.9216 3.51706 25.0427C3.54523 25.1638 3.58652 25.2738 3.63857 25.3665C3.69062 25.4591 3.75241 25.5326 3.82041 25.5828C3.8884 25.6329 3.96131 25.6588 4.03491 25.6588H11.4262C11.5758 25.6588 11.7193 25.7645 11.825 25.9528C11.9308 26.1411 11.9902 26.3965 11.9902 26.6628C11.9902 26.9291 11.9308 27.1845 11.825 27.3728C11.7193 27.5611 11.5758 27.6668 11.4262 27.6668H5.76178C5.68421 27.656 5.60623 27.6738 5.53273 27.7192C5.4592 27.7646 5.39177 27.8365 5.33463 27.9305C5.2775 28.0245 5.23193 28.1386 5.20073 28.2654C5.16957 28.3923 5.15349 28.5293 5.15349 28.6678C5.15349 28.8063 5.16957 28.9433 5.20073 29.0702C5.23193 29.1971 5.2775 29.3111 5.33463 29.4052C5.39177 29.4992 5.4592 29.5711 5.53273 29.6165C5.60623 29.6619 5.68421 29.6797 5.76178 29.6688H15.0261C15.1037 29.6797 15.1817 29.6619 15.2552 29.6165C15.3287 29.5711 15.3961 29.4992 15.4532 29.4052C15.5104 29.3111 15.556 29.1971 15.5872 29.0702C15.6183 28.9433 15.6344 28.8063 15.6344 28.6678C15.6344 28.5293 15.6183 28.3923 15.5872 28.2654C15.556 28.1386 15.5104 28.0245 15.4532 27.9305C15.3961 27.8365 15.3287 27.7646 15.2552 27.7192C15.1817 27.6738 15.1037 27.656 15.0261 27.6668H13.3376C13.188 27.6668 13.0445 27.5611 12.9388 27.3728C12.833 27.1845 12.7736 26.9291 12.7736 26.6628C12.7736 26.3965 12.833 26.1411 12.9388 25.9528C13.0445 25.7645 13.188 25.6588 13.3376 25.6588H13.2854C13.4268 25.6389 13.5589 25.5248 13.6553 25.3393C13.7516 25.1538 13.8051 24.9104 13.8051 24.6578C13.8051 24.4051 13.7516 24.1617 13.6553 23.9762C13.5589 23.7907 13.4268 23.6767 13.2854 23.6568H4.0175C3.87127 23.6649 3.73264 23.7744 3.63115 23.962C3.52966 24.1496 3.4734 24.4005 3.47438 24.6609Z" fill="#F2F2F2"/>
<path d="M31.2815 9.08667C31.2815 9.2177 31.296 9.34742 31.3242 9.46853C31.3524 9.58957 31.3936 9.69958 31.4457 9.79224C31.4977 9.8849 31.5595 9.95841 31.6275 10.0086C31.6955 10.0587 31.7684 10.0845 31.842 10.0845L39.2333 10.0845C39.3829 10.0845 39.5264 10.1903 39.6322 10.3786C39.738 10.5669 39.7974 10.8223 39.7974 11.0886C39.7974 11.3549 39.738 11.6103 39.6322 11.7986C39.5264 11.9869 39.3829 12.0926 39.2333 12.0926L33.5689 12.0926C33.4913 12.0818 33.4134 12.0996 33.3399 12.145C33.2663 12.1903 33.1989 12.2622 33.1418 12.3563C33.0846 12.4503 33.0391 12.5643 33.0079 12.6912C32.9767 12.8181 32.9606 12.9551 32.9606 13.0936C32.9606 13.2321 32.9767 13.3691 33.0079 13.496C33.0391 13.6229 33.0846 13.7369 33.1418 13.8309C33.1989 13.925 33.2663 13.9969 33.3399 14.0423C33.4134 14.0877 33.4913 14.1054 33.5689 14.0945L42.8333 14.0945C42.9108 14.1054 42.9888 14.0877 43.0623 14.0423C43.1358 13.9969 43.2032 13.925 43.2604 13.8309C43.3175 13.7369 43.3631 13.6229 43.3943 13.496C43.4255 13.3691 43.4415 13.2321 43.4415 13.0936C43.4415 12.9551 43.4255 12.8181 43.3943 12.6912C43.3631 12.5643 43.3175 12.4503 43.2604 12.3563C43.2032 12.2622 43.1358 12.1903 43.0623 12.145C42.9888 12.0996 42.9108 12.0818 42.8333 12.0926H41.1447C40.9951 12.0926 40.8517 11.9869 40.7459 11.7986C40.6401 11.6103 40.5807 11.3549 40.5807 11.0886C40.5807 10.8223 40.6401 10.5669 40.7459 10.3786C40.8517 10.1903 40.9951 10.0845 41.1447 10.0845H41.0925C41.234 10.0647 41.3661 9.9506 41.4624 9.7651C41.5587 9.57953 41.6122 9.3362 41.6122 9.08357C41.6122 8.83088 41.5587 8.58749 41.4624 8.40199C41.3661 8.21648 41.234 8.10244 41.0925 8.08261L31.8246 8.08261C31.6784 8.09066 31.5398 8.20018 31.4383 8.38779C31.3368 8.5754 31.2805 8.82624 31.2815 9.08667Z" fill="#F2F2F2"/>
<path d="M0 16.8786C0 17.1446 0.0599812 17.3997 0.166732 17.5878C0.273483 17.7759 0.418255 17.8816 0.569245 17.8816H2.14346C2.29441 17.8816 2.43922 17.9873 2.54597 18.1754C2.65272 18.3635 2.7127 18.6187 2.7127 18.8847C2.7127 19.1507 2.65272 19.4058 2.54597 19.5939C2.43922 19.782 2.29441 19.8877 2.14346 19.8877H1.84829C1.70549 19.9075 1.57217 20.0215 1.47494 20.2068C1.37771 20.3921 1.32374 20.6352 1.32374 20.8876C1.32374 21.14 1.37771 21.3831 1.47494 21.5684C1.57217 21.7538 1.70549 21.8677 1.84829 21.8875H11.1987C11.277 21.8984 11.3556 21.8806 11.4299 21.8353C11.504 21.79 11.5721 21.7181 11.6298 21.6242C11.6874 21.5303 11.7334 21.4164 11.7649 21.2896C11.7964 21.1628 11.8126 21.026 11.8126 20.8876C11.8126 20.7492 11.7964 20.6124 11.7649 20.4857C11.7334 20.3589 11.6874 20.2449 11.6298 20.1511C11.5721 20.0571 11.504 19.9853 11.4299 19.9399C11.3556 19.8946 11.277 19.8768 11.1987 19.8877H4.08662C3.93563 19.8877 3.79086 19.782 3.68411 19.5939C3.57736 19.4058 3.51738 19.1507 3.51738 18.8847C3.51738 18.6187 3.57736 18.3635 3.68411 18.1754C3.79086 17.9873 3.93563 17.8816 4.08662 17.8816H9.91963C10.0706 17.8816 10.2154 17.7759 10.3221 17.5878C10.4289 17.3997 10.4889 17.1446 10.4889 16.8786C10.4889 16.6126 10.4289 16.3575 10.3221 16.1694C10.2154 15.9813 10.0706 15.8756 9.91963 15.8756H0.569245C0.418571 15.8772 0.274293 15.9834 0.167752 16.1712C0.061177 16.3589 0.000913604 16.6131 0 16.8786Z" fill="#F2F2F2"/>
<path d="M35.116 16.863C35.116 17.129 35.1759 17.3841 35.2827 17.5722C35.3895 17.7603 35.5342 17.866 35.6852 17.866H37.2594C37.4104 17.866 37.5552 17.9717 37.6619 18.1598C37.7687 18.3479 37.8287 18.603 37.8287 18.869C37.8287 19.1351 37.7687 19.3902 37.6619 19.5783C37.5552 19.7664 37.4104 19.8721 37.2594 19.8721H36.9643C36.8215 19.8919 36.6881 20.0059 36.5909 20.1912C36.4937 20.3765 36.4397 20.6196 36.4397 20.872C36.4397 21.1244 36.4937 21.3675 36.5909 21.5528C36.6881 21.7382 36.8215 21.8521 36.9643 21.8719L46.3146 21.8719C46.3929 21.8827 46.4716 21.865 46.5458 21.8197C46.62 21.7743 46.6881 21.7025 46.7457 21.6085C46.8034 21.5147 46.8494 21.4007 46.8809 21.2739C46.9123 21.1472 46.9286 21.0104 46.9286 20.872C46.9286 20.7336 46.9123 20.5968 46.8809 20.47C46.8494 20.3432 46.8034 20.2293 46.7457 20.1354C46.6881 20.0415 46.62 19.9696 46.5458 19.9243C46.4716 19.879 46.3929 19.8612 46.3146 19.8721L39.2026 19.8721C39.0516 19.8721 38.9068 19.7664 38.8001 19.5783C38.6933 19.3902 38.6333 19.1351 38.6333 18.869C38.6333 18.603 38.6933 18.3479 38.8001 18.1598C38.9068 17.9717 39.0516 17.866 39.2026 17.866L45.0356 17.866C45.1866 17.866 45.3314 17.7603 45.4381 17.5722C45.5449 17.3841 45.6048 17.129 45.6048 16.863C45.6048 16.597 45.5449 16.3418 45.4381 16.1537C45.3314 15.9656 45.1866 15.8599 45.0356 15.8599L35.6852 15.8599C35.5345 15.8616 35.3903 15.9677 35.2837 16.1555C35.1771 16.3433 35.1169 16.5975 35.116 16.863Z" fill="#F2F2F2"/>
<path d="M9.35972 1.29605C9.36066 1.55669 9.42052 1.80611 9.52625 1.98982C9.63199 2.17359 9.77504 2.27671 9.92412 2.27665H10.7289C10.8786 2.27665 11.0222 2.38062 11.128 2.56567C11.2338 2.75071 11.2933 3.00172 11.2933 3.2634C11.2933 3.52513 11.2338 3.77608 11.128 3.96119C11.0222 4.14623 10.8786 4.25015 10.7289 4.25015H8.46087C8.3112 4.25015 8.16762 4.35412 8.06178 4.53917C7.95594 4.72422 7.89647 4.97523 7.89647 5.2369C7.89647 5.49863 7.95594 5.74958 8.06178 5.93463C8.16762 6.11974 8.3112 6.22365 8.46087 6.22365L13.307 6.22365C13.4486 6.24314 13.5808 6.35528 13.6772 6.53758C13.7736 6.71995 13.8271 6.95908 13.8271 7.20742C13.8271 7.45569 13.7736 7.69482 13.6772 7.87718C13.5808 8.05949 13.4486 8.17163 13.307 8.19112H5.8932C5.74353 8.19112 5.59996 8.29503 5.49412 8.48014C5.38827 8.66519 5.3288 8.91613 5.3288 9.17787C5.3288 9.43954 5.38827 9.69055 5.49412 9.8756C5.59996 10.0606 5.74353 10.1646 5.8932 10.1646H11.0669C11.1445 10.1539 11.2225 10.1714 11.2961 10.216C11.3696 10.2606 11.4371 10.3313 11.4943 10.4237C11.5514 10.5161 11.5971 10.6281 11.6283 10.7528C11.6595 10.8775 11.6756 11.0122 11.6756 11.1483C11.6756 11.2844 11.6595 11.4191 11.6283 11.5438C11.5971 11.6684 11.5514 11.7805 11.4943 11.8729C11.4371 11.9653 11.3696 12.036 11.2961 12.0806C11.2225 12.1251 11.1445 12.1427 11.0669 12.132H3.69135C3.54168 12.132 3.39811 12.2359 3.29227 12.421C3.18642 12.606 3.12695 12.857 3.12695 13.1187C3.12695 13.3804 3.18642 13.6314 3.29227 13.8164C3.39811 14.0016 3.54168 14.1055 3.69135 14.1055H12.9621C13.1118 14.1055 13.2554 14.0016 13.3612 13.8164C13.467 13.6314 13.5265 13.3804 13.5265 13.1187C13.5265 12.857 13.467 12.606 13.3612 12.421C13.2554 12.2359 13.1118 12.132 12.9621 12.132H12.9935C12.8519 12.1125 12.7197 12.0004 12.6233 11.8181C12.5269 11.6357 12.4734 11.3966 12.4734 11.1483C12.4734 10.9 12.5269 10.6609 12.6233 10.4785C12.7197 10.2962 12.8519 10.1841 12.9935 10.1646H15.164C15.3136 10.1646 15.4572 10.0606 15.5631 9.8756C15.6689 9.69055 15.7284 9.43954 15.7284 9.17787C15.7284 8.91613 15.6689 8.66519 15.5631 8.48014C15.4572 8.29503 15.3136 8.19112 15.164 8.19112H15.2336C15.156 8.20178 15.078 8.18429 15.0044 8.13971C14.9309 8.09512 14.8634 8.02435 14.8062 7.93201C14.7491 7.8396 14.7035 7.72753 14.6722 7.60285C14.6411 7.47816 14.6249 7.34349 14.6249 7.20742C14.6249 7.07128 14.6411 6.93667 14.6722 6.81192C14.7035 6.68724 14.7491 6.57516 14.8062 6.48276C14.8634 6.39042 14.9309 6.31964 15.0044 6.27506C15.078 6.23047 15.156 6.21299 15.2336 6.22365H17.7316C17.8813 6.22365 18.0249 6.11974 18.1307 5.93463C18.2366 5.74958 18.296 5.49863 18.296 5.2369C18.296 4.97523 18.2366 4.72422 18.1307 4.53917C18.0249 4.35412 17.8813 4.25015 17.7316 4.25015L12.659 4.25015C12.5093 4.25015 12.3658 4.14623 12.2599 3.96119C12.1541 3.77608 12.0946 3.52513 12.0946 3.2634C12.0946 3.00172 12.1541 2.75071 12.2599 2.56567C12.3658 2.38062 12.5093 2.27665 12.659 2.27665L19.1949 2.27665C19.2725 2.28737 19.3505 2.26982 19.4241 2.22524C19.4976 2.18065 19.5651 2.11 19.6223 2.0176C19.6795 1.92519 19.7251 1.81312 19.7563 1.68843C19.7875 1.56375 19.8036 1.42908 19.8036 1.293C19.8036 1.15687 19.7875 1.02225 19.7563 0.89751C19.7251 0.772825 19.6795 0.660751 19.6223 0.56835C19.5651 0.475949 19.4976 0.405234 19.4241 0.360648C19.3505 0.316061 19.2725 0.298577 19.1949 0.309298L9.92064 0.309298C9.77156 0.310882 9.62889 0.415524 9.52378 0.600388C9.4187 0.785312 9.35972 1.03535 9.35972 1.29605Z" fill="#F2F2F2"/>
<path d="M33.3771 24.6437C33.378 24.9043 33.4378 25.1538 33.5436 25.3375C33.6493 25.5212 33.7924 25.6244 33.9415 25.6243H34.7462C34.8959 25.6243 35.0395 25.7283 35.1453 25.9133C35.2512 26.0984 35.3106 26.3494 35.3106 26.6111C35.3106 26.8728 35.2512 27.1237 35.1453 27.3088C35.0395 27.4939 34.8959 27.5978 34.7462 27.5978H32.4782C32.3285 27.5978 32.185 27.7018 32.0791 27.8868C31.9733 28.0719 31.9138 28.3229 31.9138 28.5846C31.9138 28.8463 31.9733 29.0972 32.0791 29.2823C32.185 29.4674 32.3285 29.5713 32.4782 29.5713L37.3244 29.5713C37.4659 29.5908 37.5981 29.7029 37.6945 29.8852C37.7909 30.0676 37.8444 30.3067 37.8444 30.5551C37.8444 30.8033 37.7909 31.0425 37.6945 31.2248C37.5981 31.4071 37.4659 31.5193 37.3244 31.5388L29.9105 31.5388C29.7609 31.5388 29.6173 31.6427 29.5114 31.8278C29.4056 32.0128 29.3461 32.2638 29.3461 32.5255C29.3461 32.7872 29.4056 33.0382 29.5114 33.2233C29.6173 33.4083 29.7609 33.5123 29.9105 33.5123H35.0842C35.1618 33.5016 35.2398 33.5191 35.3134 33.5637C35.3869 33.6083 35.4544 33.6789 35.5116 33.7713C35.5688 33.8637 35.6144 33.9758 35.6456 34.1005C35.6768 34.2252 35.6929 34.3598 35.6929 34.496C35.6929 34.6321 35.6768 34.7667 35.6456 34.8914C35.6144 35.0161 35.5688 35.1282 35.5116 35.2206C35.4544 35.313 35.3869 35.3836 35.3134 35.4282C35.2398 35.4728 35.1618 35.4903 35.0842 35.4796H27.7087C27.559 35.4796 27.4154 35.5836 27.3096 35.7686C27.2038 35.9537 27.1443 36.2047 27.1443 36.4664C27.1443 36.7281 27.2038 36.9791 27.3096 37.1641C27.4154 37.3492 27.559 37.4531 27.7087 37.4531H36.9795C37.1292 37.4531 37.2727 37.3492 37.3785 37.1641C37.4844 36.9791 37.5438 36.7281 37.5438 36.4664C37.5438 36.2047 37.4844 35.9537 37.3785 35.7686C37.2727 35.5836 37.1292 35.4796 36.9795 35.4796H37.0108C36.8692 35.4601 36.737 35.3481 36.6406 35.1658C36.5443 34.9834 36.4907 34.7442 36.4907 34.496C36.4907 34.2476 36.5443 34.0085 36.6406 33.8261C36.737 33.6438 36.8692 33.5318 37.0108 33.5123H39.1813C39.331 33.5123 39.4745 33.4083 39.5804 33.2233C39.6862 33.0382 39.7457 32.7872 39.7457 32.5255C39.7457 32.2638 39.6862 32.0128 39.5804 31.8278C39.4745 31.6427 39.331 31.5388 39.1813 31.5388H39.251C39.1734 31.5494 39.0953 31.532 39.0218 31.4874C38.9482 31.4428 38.8807 31.372 38.8236 31.2797C38.7664 31.1873 38.7208 31.0752 38.6896 30.9505C38.6584 30.8258 38.6423 30.6911 38.6423 30.5551C38.6423 30.4189 38.6584 30.2843 38.6896 30.1596C38.7208 30.0349 38.7664 29.9228 38.8236 29.8304C38.8807 29.7381 38.9482 29.6673 39.0218 29.6227C39.0953 29.5781 39.1734 29.5606 39.251 29.5713H41.749C41.8987 29.5713 42.0422 29.4674 42.148 29.2823C42.2539 29.0972 42.3134 28.8463 42.3134 28.5846C42.3134 28.3229 42.2539 28.0719 42.148 27.8868C42.0422 27.7018 41.8987 27.5978 41.749 27.5978L36.6763 27.5978C36.5266 27.5978 36.3831 27.4939 36.2773 27.3088C36.1714 27.1237 36.1119 26.8728 36.1119 26.6111C36.1119 26.3494 36.1714 26.0984 36.2773 25.9133C36.3831 25.7283 36.5266 25.6243 36.6763 25.6243L43.2122 25.6243C43.2898 25.635 43.3679 25.6175 43.4414 25.5729C43.515 25.5283 43.5825 25.4577 43.6396 25.3653C43.6968 25.2729 43.7424 25.1608 43.7736 25.0361C43.8048 24.9114 43.8209 24.7767 43.8209 24.6407C43.8209 24.5045 43.8048 24.3699 43.7736 24.2452C43.7424 24.1205 43.6968 24.0084 43.6396 23.916C43.5825 23.8236 43.515 23.7529 43.4414 23.7083C43.3679 23.6637 43.2898 23.6462 43.2122 23.657L33.938 23.657C33.7889 23.6585 33.6462 23.7632 33.5411 23.948C33.436 24.133 33.3771 24.383 33.3771 24.6437Z" fill="#F2F2F2"/>
<defs>
<linearGradient id="paint0_linear_586_1731" x1="23.3508" y1="17.1641" x2="23.3508" y2="20.6599" gradientUnits="userSpaceOnUse">
<stop stop-color="#DC3838"/>
<stop offset="1" stop-color="#3E4DD2"/>
</linearGradient>
<linearGradient id="paint1_linear_586_1731" x1="23.3472" y1="24.375" x2="23.3472" y2="27.8708" gradientUnits="userSpaceOnUse">
<stop stop-color="#DC3838"/>
<stop offset="1" stop-color="#3E4DD2"/>
</linearGradient>
<linearGradient id="paint2_linear_586_1731" x1="28.6143" y1="17.1641" x2="28.6143" y2="20.6599" gradientUnits="userSpaceOnUse">
<stop stop-color="#DC3838"/>
<stop offset="1" stop-color="#3E4DD2"/>
</linearGradient>
<linearGradient id="paint3_linear_586_1731" x1="23.3508" y1="9.85938" x2="23.3508" y2="13.3552" gradientUnits="userSpaceOnUse">
<stop stop-color="#DC3838"/>
<stop offset="1" stop-color="#3E4DD2"/>
</linearGradient>
<linearGradient id="paint4_linear_586_1731" x1="18.0454" y1="16.9648" x2="18.0454" y2="20.4607" gradientUnits="userSpaceOnUse">
<stop stop-color="#DC3838"/>
<stop offset="1" stop-color="#3E4DD2"/>
</linearGradient>
<linearGradient id="paint5_linear_586_1731" x1="26.0364" y1="13.5781" x2="26.0364" y2="24.2964" gradientUnits="userSpaceOnUse">
<stop stop-color="#DC3838"/>
<stop offset="1" stop-color="#3E4DD2"/>
</linearGradient>
<linearGradient id="paint6_linear_586_1731" x1="20.6062" y1="13.3711" x2="20.6062" y2="24.0787" gradientUnits="userSpaceOnUse">
<stop stop-color="#DC3838"/>
<stop offset="1" stop-color="#3E4DD2"/>
</linearGradient>
</defs>
</svg>
