<svg width="219" height="40" viewBox="0 0 219 40" fill="none" xmlns="http://www.w3.org/2000/svg">
<path d="M57.4272 8.4875H60.7432V22.0863H60.8953L63.3595 19.5612L67.7707 15.3021H71.6952L65.337 21.4778L72.3949 31H68.4096L62.9336 23.364L60.7432 25.4023V31H57.4272V8.4875Z" fill="url(#paint0_linear_586_1729)"/>
<path d="M83.0917 11.8339C82.3818 11.8339 81.885 11.692 81.601 11.408C81.3171 11.1038 81.1751 10.7286 81.1751 10.2824V9.79566C81.1751 9.34946 81.3171 8.98439 81.601 8.70045C81.885 8.39623 82.3818 8.24412 83.0917 8.24412C83.8016 8.24412 84.2985 8.39623 84.5824 8.70045C84.8663 8.98439 85.0083 9.34946 85.0083 9.79566V10.2824C85.0083 10.7286 84.8663 11.1038 84.5824 11.408C84.2985 11.692 83.8016 11.8339 83.0917 11.8339ZM76.2163 28.9313H81.8748V17.3708H76.2163V15.3021H84.3086V28.9313H89.6021V31H76.2163V28.9313ZM100.907 31.3651C99.7715 31.3651 98.7574 31.1724 97.8651 30.787C96.9929 30.3814 96.2527 29.8237 95.6442 29.1138C95.0358 28.404 94.5693 27.542 94.2448 26.5279C93.9406 25.5138 93.7885 24.3882 93.7885 23.151C93.7885 21.9139 93.9507 20.7882 94.2752 19.7742C94.5997 18.7601 95.0662 17.8981 95.6747 17.1883C96.2831 16.4581 97.0234 15.9004 97.8955 15.515C98.7676 15.1297 99.7614 14.937 100.877 14.937C102.398 14.937 103.635 15.2717 104.588 15.941C105.542 16.6103 106.241 17.4824 106.688 18.5573L104.74 19.5916C104.457 18.7804 103.98 18.1516 103.311 17.7055C102.662 17.2593 101.85 17.0362 100.877 17.0362C100.167 17.0362 99.5281 17.1579 98.9603 17.4012C98.4127 17.6243 97.9462 17.9488 97.5608 18.3747C97.1755 18.8007 96.8814 19.3077 96.6786 19.8959C96.4961 20.484 96.4048 21.1229 96.4048 21.8125V24.4896C96.4048 25.1792 96.4961 25.8181 96.6786 26.4062C96.8814 26.9944 97.1755 27.5014 97.5608 27.9273C97.9462 28.3533 98.4228 28.6879 98.9907 28.9313C99.5586 29.1544 100.208 29.2659 100.938 29.2659C101.992 29.2659 102.864 29.0226 103.554 28.5358C104.244 28.049 104.791 27.3797 105.197 26.5279L106.931 27.7144C106.464 28.769 105.734 29.6411 104.74 30.3307C103.767 31.0203 102.489 31.3651 100.907 31.3651ZM112.669 8.4875H115.103V22.6947H115.224L117.962 20.1088L123.195 15.3021H126.176L119.666 21.4474L126.937 31H123.925L117.81 22.8468L115.103 25.311V31H112.669V8.4875ZM137.025 31.3651C135.382 31.3651 133.963 31.0913 132.766 30.5437C131.59 29.9758 130.586 29.2254 129.754 28.2924L131.397 26.8626C132.148 27.6535 132.969 28.262 133.861 28.6879C134.754 29.1138 135.829 29.3268 137.086 29.3268C138.303 29.3268 139.297 29.1138 140.067 28.6879C140.858 28.2417 141.254 27.5521 141.254 26.6192C141.254 26.2136 141.173 25.8789 141.011 25.6153C140.869 25.3313 140.666 25.1082 140.402 24.946C140.138 24.7837 139.844 24.662 139.52 24.5809C139.195 24.4795 138.851 24.3984 138.485 24.3375L136.021 23.9724C135.474 23.8913 134.875 23.7798 134.226 23.6378C133.598 23.4958 133.02 23.2727 132.492 22.9685C131.965 22.644 131.519 22.2181 131.154 21.6908C130.809 21.1635 130.637 20.4739 130.637 19.6221C130.637 18.8311 130.789 18.1516 131.093 17.5838C131.417 16.9956 131.864 16.5088 132.431 16.1235C132.999 15.7179 133.669 15.4238 134.439 15.2412C135.21 15.0384 136.052 14.937 136.964 14.937C138.384 14.937 139.611 15.1601 140.645 15.6063C141.7 16.0525 142.603 16.6711 143.353 17.4621L141.771 18.9528C141.589 18.7297 141.355 18.5066 141.071 18.2835C140.808 18.0401 140.473 17.8271 140.067 17.6446C139.682 17.4418 139.226 17.2795 138.698 17.1579C138.171 17.0362 137.563 16.9753 136.873 16.9753C135.636 16.9753 134.683 17.1883 134.013 17.6142C133.364 18.0401 133.04 18.6587 133.04 19.4699C133.04 19.8756 133.111 20.2204 133.253 20.5043C133.415 20.768 133.628 20.9809 133.892 21.1432C134.155 21.3054 134.449 21.4373 134.774 21.5387C135.119 21.6198 135.464 21.6908 135.808 21.7516L138.273 22.1167C138.84 22.1978 139.439 22.3094 140.067 22.4513C140.696 22.5933 141.274 22.8265 141.802 23.151C142.329 23.4553 142.765 23.871 143.11 24.3984C143.475 24.9257 143.657 25.6153 143.657 26.4671C143.657 28.0288 143.049 29.2355 141.832 30.0873C140.635 30.9392 139.033 31.3651 137.025 31.3651ZM155.845 31C154.648 31 153.766 30.6654 153.198 29.9961C152.65 29.3268 152.377 28.4648 152.377 27.4102V17.3708H147.144V15.3021H151.038C151.565 15.3021 151.93 15.2007 152.133 14.9979C152.356 14.7748 152.468 14.3996 152.468 13.8722V9.76523H154.81V15.3021H161.96V17.3708H154.81V28.9313H161.96V31H155.845ZM179.258 31C178.305 31 177.625 30.7566 177.22 30.2699C176.814 29.7831 176.561 29.1747 176.459 28.4445H176.307C175.962 29.3572 175.405 30.0772 174.634 30.6045C173.883 31.1115 172.869 31.3651 171.592 31.3651C169.949 31.3651 168.641 30.9392 167.667 30.0873C166.694 29.2355 166.207 28.0693 166.207 26.5888C166.207 25.1285 166.734 24.0029 167.789 23.2119C168.864 22.4209 170.588 22.0254 172.961 22.0254H176.307V20.4739C176.307 19.3178 175.983 18.4559 175.334 17.888C174.685 17.2998 173.762 17.0057 172.565 17.0057C171.51 17.0057 170.649 17.2187 169.979 17.6446C169.31 18.0502 168.772 18.608 168.367 19.3178L166.724 18.1009C166.927 17.6953 167.201 17.2998 167.545 16.9145C167.89 16.5291 168.316 16.1945 168.823 15.9105C169.33 15.6063 169.908 15.3731 170.557 15.2108C171.206 15.0283 171.926 14.937 172.717 14.937C174.563 14.937 176.023 15.4035 177.098 16.3365C178.193 17.2694 178.741 18.5674 178.741 20.2305V28.8704H180.931V31H179.258ZM172.018 29.3268C172.646 29.3268 173.214 29.2558 173.721 29.1138C174.248 28.9516 174.705 28.7487 175.09 28.5054C175.476 28.2417 175.77 27.9375 175.972 27.5927C176.196 27.2276 176.307 26.8423 176.307 26.4367V23.8508H172.961C171.5 23.8508 170.436 24.0536 169.766 24.4592C169.097 24.8648 168.762 25.453 168.762 26.2237V26.8626C168.762 27.6738 169.046 28.2924 169.614 28.7183C170.202 29.124 171.003 29.3268 172.018 29.3268ZM184.783 28.9313H189.377V17.3708H184.783V15.3021H191.811V19.257H191.963C192.287 18.0198 192.896 17.0564 193.788 16.3669C194.701 15.657 195.857 15.3021 197.256 15.3021H199.447V17.7359H196.496C195.096 17.7359 193.96 18.1415 193.088 18.9528C192.236 19.764 191.811 20.8288 191.811 22.1471V28.9313H197.895V31H184.783V28.9313ZM210.569 31C209.373 31 208.49 30.6654 207.922 29.9961C207.375 29.3268 207.101 28.4648 207.101 27.4102V17.3708H201.868V15.3021H205.763C206.29 15.3021 206.655 15.2007 206.858 14.9979C207.081 14.7748 207.192 14.3996 207.192 13.8722V9.76523H209.535V15.3021H216.684V17.3708H209.535V28.9313H216.684V31H210.569Z" fill="#F2F2F2"/>
<path d="M21.6345 19.912C21.6345 20.2578 21.7353 20.5959 21.924 20.8834C22.1128 21.171 22.381 21.395 22.6948 21.5272C23.0087 21.6593 23.3539 21.6938 23.687 21.626C24.02 21.5583 24.3258 21.3915 24.5657 21.1467C24.8056 20.9019 24.9688 20.5901 25.0346 20.2508C25.1004 19.9115 25.066 19.5599 24.9355 19.2406C24.8051 18.9213 24.5846 18.6486 24.3018 18.4569C24.0191 18.2653 23.687 18.1634 23.3474 18.1641C22.8928 18.165 22.4571 18.3496 22.136 18.6773C21.8149 19.005 21.6345 19.449 21.6345 19.912Z" fill="url(#paint1_linear_586_1729)"/>
<path d="M23.3472 25.375C23.0077 25.375 22.6759 25.4775 22.3936 25.6696C22.1114 25.8617 21.8914 26.1346 21.7615 26.454C21.6316 26.7734 21.5976 27.1248 21.6639 27.4639C21.7301 27.803 21.8935 28.1144 22.1335 28.3589C22.3736 28.6033 22.6794 28.7698 23.0123 28.8372C23.3453 28.9047 23.6903 28.8701 24.004 28.7378C24.3176 28.6055 24.5856 28.3814 24.7742 28.094C24.9628 27.8065 25.0635 27.4686 25.0635 27.1229C25.0635 26.6593 24.8827 26.2147 24.5608 25.887C24.2389 25.5592 23.8024 25.375 23.3472 25.375Z" fill="url(#paint2_linear_586_1729)"/>
<path d="M28.6143 18.1641C28.2748 18.1641 27.943 18.2666 27.6607 18.4587C27.3785 18.6507 27.1585 18.9237 27.0286 19.2431C26.8987 19.5625 26.8647 19.9139 26.9309 20.253C26.9971 20.592 27.1606 20.9035 27.4007 21.1479C27.6407 21.3924 27.9465 21.5588 28.2794 21.6263C28.6124 21.6937 28.9575 21.6591 29.271 21.5268C29.5847 21.3945 29.8527 21.1705 30.0413 20.883C30.2299 20.5956 30.3306 20.2577 30.3306 19.912C30.3306 19.4484 30.1497 19.0038 29.8279 18.676C29.506 18.3482 29.0694 18.1641 28.6143 18.1641Z" fill="url(#paint3_linear_586_1729)"/>
<path d="M23.3474 14.3552C23.687 14.3559 24.0191 14.2539 24.3018 14.0623C24.5846 13.8707 24.8051 13.598 24.9355 13.2786C25.066 12.9593 25.1004 12.6077 25.0346 12.2685C24.9688 11.9292 24.8056 11.6174 24.5657 11.3726C24.3258 11.1278 24.02 10.961 23.687 10.8932C23.3539 10.8255 23.0087 10.8599 22.6948 10.9921C22.381 11.1243 22.1128 11.3483 21.924 11.6358C21.7353 11.9233 21.6345 12.2614 21.6345 12.6073C21.6345 13.0702 21.8149 13.5143 22.136 13.842C22.4571 14.1697 22.8928 14.3542 23.3474 14.3552Z" fill="url(#paint4_linear_586_1729)"/>
<path d="M19.7617 19.7128C19.7617 19.367 19.661 19.0291 19.4724 18.7416C19.2839 18.4542 19.0158 18.2302 18.7022 18.0979C18.3886 17.9656 18.0435 17.931 17.7106 17.9984C17.3776 18.0659 17.0718 18.2323 16.8318 18.4768C16.5918 18.7212 16.4283 19.0327 16.3621 19.3717C16.2959 19.7108 16.3298 20.0623 16.4597 20.3816C16.5896 20.701 16.8096 20.974 17.0919 21.1661C17.3741 21.3581 17.7059 21.4607 18.0454 21.4607C18.5006 21.4607 18.9371 21.2765 19.259 20.9487C19.5809 20.6209 19.7617 20.1763 19.7617 19.7128Z" fill="url(#paint5_linear_586_1729)"/>
<path d="M27.2524 22.2937C26.6384 21.6646 26.2938 20.8136 26.2938 19.9266C26.2938 19.0396 26.6384 18.1886 27.2524 17.5595C27.4917 17.3148 27.6545 17.0034 27.7202 16.6645C27.7859 16.3256 27.7515 15.9745 27.6214 15.6555C27.4913 15.3366 27.2713 15.064 26.9892 14.8722C26.7071 14.6805 26.3756 14.5781 26.0364 14.5781C25.6972 14.5781 25.3656 14.6805 25.0836 14.8722C24.8015 15.064 24.5815 15.3366 24.4514 15.6555C24.3213 15.9745 24.2869 16.3256 24.3525 16.6645C24.4182 17.0034 24.581 17.3148 24.8204 17.5595C25.1288 17.8707 25.3736 18.2411 25.5407 18.6492C25.7077 19.0573 25.7938 19.4951 25.7938 19.9373C25.7938 20.3794 25.7077 20.8172 25.5407 21.2253C25.3736 21.6334 25.1288 22.0037 24.8204 22.315C24.581 22.5597 24.4182 22.8711 24.3525 23.21C24.2869 23.5489 24.3213 23.9 24.4514 24.219C24.5815 24.538 24.8015 24.8105 25.0836 25.0023C25.3656 25.1941 25.6972 25.2964 26.0364 25.2964C26.3756 25.2964 26.7071 25.1941 26.9892 25.0023C27.2713 24.8105 27.4913 24.538 27.6214 24.219C27.7515 23.9 27.7859 23.5489 27.7202 23.21C27.6545 22.8711 27.4917 22.5597 27.2524 22.315V22.2937Z" fill="url(#paint6_linear_586_1729)"/>
<path d="M22.3121 23.3145C22.3103 22.8556 22.1334 22.4153 21.8188 22.0867C21.2048 21.4576 20.8602 20.6066 20.8602 19.7196C20.8602 18.8326 21.2048 17.9816 21.8188 17.3525C22.0582 17.1078 22.2209 16.7963 22.2866 16.4575C22.3523 16.1186 22.3179 15.7675 22.1878 15.4485C22.0577 15.1295 21.8377 14.857 21.5556 14.6652C21.2735 14.4735 20.9419 14.3711 20.6028 14.3711C20.2636 14.3711 19.9321 14.4735 19.6499 14.6652C19.3679 14.857 19.1479 15.1295 19.0178 15.4485C18.8877 15.7675 18.8533 16.1186 18.919 16.4575C18.9846 16.7963 19.1474 17.1078 19.3868 17.3525C19.6947 17.6637 19.939 18.0338 20.1058 18.4416C20.2726 18.8494 20.3584 19.2867 20.3584 19.7285C20.3584 20.1702 20.2726 20.6076 20.1058 21.0154C19.939 21.4231 19.6947 21.7933 19.3868 22.1044C19.1892 22.3088 19.044 22.5595 18.964 22.8346C18.8841 23.1095 18.8718 23.4004 18.9283 23.6814C18.9848 23.9623 19.1083 24.2248 19.288 24.4457C19.4676 24.6666 19.6979 24.8391 19.9584 24.9479C20.219 25.0568 20.5018 25.0987 20.782 25.0699C21.0622 25.0411 21.3312 24.9425 21.5652 24.7828C21.7991 24.6231 21.9909 24.4073 22.1236 24.1543C22.2563 23.9013 22.3258 23.619 22.326 23.3322L22.3121 23.3145Z" fill="url(#paint7_linear_586_1729)"/>
<path d="M8.33838 33.4455C8.33928 33.7112 8.39881 33.9655 8.50399 34.1533C8.60917 34.3412 8.75161 34.4475 8.90037 34.4491H9.94108C10.0821 34.4689 10.2137 34.5829 10.3097 34.7683C10.4057 34.9538 10.4589 35.197 10.4589 35.4495C10.4589 35.7021 10.4057 35.9453 10.3097 36.1307C10.2137 36.3161 10.0821 36.4301 9.94108 36.4499H10.0105C9.86143 36.4499 9.71847 36.5557 9.61308 36.7439C9.50769 36.9321 9.44847 37.1874 9.44847 37.4535C9.44847 37.7197 9.50769 37.9749 9.61308 38.1631C9.71847 38.3513 9.86143 38.457 10.0105 38.457H19.2416C19.3907 38.457 19.5336 38.3513 19.639 38.1631C19.7444 37.9749 19.8036 37.7197 19.8036 37.4535C19.8036 37.1874 19.7444 36.9321 19.639 36.7439C19.5336 36.5557 19.3907 36.4499 19.2416 36.4499H16.3137C16.2365 36.4609 16.1588 36.443 16.0855 36.3977C16.0123 36.3523 15.9451 36.2804 15.8881 36.1865C15.8312 36.0925 15.7858 35.9785 15.7547 35.8517C15.7237 35.7249 15.7076 35.588 15.7076 35.4495C15.7076 35.3111 15.7237 35.1742 15.7547 35.0473C15.7858 34.9205 15.8312 34.8066 15.8881 34.7126C15.9451 34.6186 16.0123 34.5467 16.0855 34.5013C16.1588 34.456 16.2365 34.4382 16.3137 34.4491H18.1176C18.2667 34.4491 18.4096 34.3434 18.515 34.1551C18.6204 33.9669 18.6796 33.7117 18.6796 33.4455C18.6796 33.1794 18.6204 32.9241 18.515 32.7359C18.4096 32.5477 18.2667 32.442 18.1176 32.442H8.89343C8.74558 32.4453 8.60442 32.5524 8.50052 32.7403C8.39663 32.9281 8.33838 33.1815 8.33838 33.4455ZM14.9677 35.4464C14.9682 35.5784 14.954 35.7093 14.9259 35.8314C14.8978 35.9536 14.8564 36.0645 14.8042 36.1579C14.7519 36.2512 14.6897 36.3251 14.6213 36.3752C14.553 36.4254 14.4797 36.4508 14.4057 36.4499H11.8733C11.796 36.4609 11.7183 36.443 11.6451 36.3977C11.5719 36.3523 11.5047 36.2804 11.4478 36.1865C11.3908 36.0925 11.3454 35.9785 11.3143 35.8517C11.2833 35.7249 11.2672 35.588 11.2672 35.4495C11.2672 35.3111 11.2833 35.1742 11.3143 35.0473C11.3454 34.9205 11.3908 34.8066 11.4478 34.7126C11.5047 34.6186 11.5719 34.5467 11.6451 34.5013C11.7183 34.456 11.796 34.4382 11.8733 34.4491H14.4057C14.4794 34.4483 14.5524 34.4734 14.6205 34.5232C14.6887 34.573 14.7507 34.6463 14.8029 34.739C14.8552 34.8317 14.8966 34.9419 14.9249 35.0633C14.9532 35.1847 14.9677 35.3149 14.9677 35.4464Z" fill="#F2F2F2"/>
<path d="M27.0996 2.3088C27.1005 2.57449 27.16 2.82879 27.2652 3.01661C27.3704 3.20449 27.5128 3.31073 27.6616 3.31234H28.7023C28.8433 3.33217 28.9749 3.44621 29.0709 3.63162C29.1669 3.81709 29.2202 4.06029 29.2202 4.31279C29.2202 4.56535 29.1669 4.80855 29.0709 4.99395C28.9749 5.17942 28.8433 5.29341 28.7023 5.31323H28.7717C28.6227 5.31323 28.4797 5.41897 28.3743 5.60717C28.2689 5.79536 28.2097 6.05065 28.2097 6.31677C28.2097 6.58296 28.2689 6.83818 28.3743 7.02637C28.4797 7.21457 28.6227 7.32031 28.7717 7.32031L38.0028 7.32031C38.1519 7.32031 38.2948 7.21457 38.4002 7.02637C38.5056 6.83818 38.5648 6.58296 38.5648 6.31677C38.5648 6.05065 38.5056 5.79536 38.4002 5.60717C38.2948 5.41897 38.1519 5.31323 38.0028 5.31323L35.0749 5.31323C34.9977 5.32413 34.92 5.30629 34.8467 5.26095C34.7735 5.2156 34.7063 5.14368 34.6494 5.04977C34.5924 4.9558 34.547 4.84181 34.5159 4.71501C34.4849 4.58814 34.4688 4.45124 34.4688 4.31279C34.4688 4.1744 34.4849 4.03743 34.5159 3.91063C34.547 3.78382 34.5924 3.66984 34.6494 3.57587C34.7063 3.48189 34.7735 3.40997 34.8467 3.36463C34.92 3.31928 34.9977 3.3015 35.0749 3.31234L36.8788 3.31234C37.0279 3.31234 37.1708 3.20666 37.2762 3.0184C37.3816 2.83021 37.4408 2.57499 37.4408 2.3088C37.4408 2.04268 37.3816 1.78739 37.2762 1.5992C37.1708 1.41101 37.0279 1.30526 36.8788 1.30526L27.6547 1.30526C27.5068 1.30855 27.3657 1.41565 27.2618 1.60354C27.1579 1.79136 27.0996 2.04478 27.0996 2.3088ZM33.729 4.30969C33.7294 4.4417 33.7152 4.57259 33.6871 4.69469C33.6591 4.81685 33.6177 4.9278 33.5654 5.02115C33.5131 5.11451 33.451 5.18841 33.3826 5.23852C33.3142 5.28864 33.2409 5.31403 33.167 5.31323L30.6346 5.31323C30.5573 5.32413 30.4796 5.30629 30.4063 5.26095C30.3331 5.2156 30.2659 5.14368 30.209 5.04977C30.1521 4.9558 30.1066 4.84181 30.0756 4.71501C30.0445 4.58814 30.0285 4.45124 30.0285 4.31279C30.0285 4.1744 30.0445 4.03743 30.0756 3.91063C30.1066 3.78382 30.1521 3.66984 30.209 3.57587C30.2659 3.48189 30.3331 3.40997 30.4063 3.36463C30.4796 3.31928 30.5573 3.3015 30.6346 3.31234L33.167 3.31234C33.2406 3.31154 33.3136 3.33669 33.3818 3.38649C33.4499 3.43624 33.5119 3.50958 33.5641 3.60226C33.6164 3.69499 33.6578 3.80519 33.6861 3.92655C33.7144 4.04796 33.729 4.17818 33.729 4.30969Z" fill="#F2F2F2"/>
<path d="M3.47438 25.6609C3.47438 25.7919 3.4889 25.9216 3.51706 26.0427C3.54523 26.1638 3.58652 26.2738 3.63857 26.3665C3.69062 26.4591 3.75241 26.5326 3.82041 26.5828C3.8884 26.6329 3.96131 26.6588 4.03491 26.6588H11.4262C11.5758 26.6588 11.7193 26.7645 11.825 26.9528C11.9308 27.1411 11.9902 27.3965 11.9902 27.6628C11.9902 27.9291 11.9308 28.1845 11.825 28.3728C11.7193 28.5611 11.5758 28.6668 11.4262 28.6668H5.76178C5.68421 28.656 5.60623 28.6738 5.53273 28.7192C5.4592 28.7646 5.39177 28.8365 5.33463 28.9305C5.2775 29.0245 5.23193 29.1386 5.20073 29.2654C5.16957 29.3923 5.15349 29.5293 5.15349 29.6678C5.15349 29.8063 5.16957 29.9433 5.20073 30.0702C5.23193 30.1971 5.2775 30.3111 5.33463 30.4052C5.39177 30.4992 5.4592 30.5711 5.53273 30.6165C5.60623 30.6619 5.68421 30.6797 5.76178 30.6688H15.0261C15.1037 30.6797 15.1817 30.6619 15.2552 30.6165C15.3287 30.5711 15.3961 30.4992 15.4532 30.4052C15.5104 30.3111 15.556 30.1971 15.5872 30.0702C15.6183 29.9433 15.6344 29.8063 15.6344 29.6678C15.6344 29.5293 15.6183 29.3923 15.5872 29.2654C15.556 29.1386 15.5104 29.0245 15.4532 28.9305C15.3961 28.8365 15.3287 28.7646 15.2552 28.7192C15.1817 28.6738 15.1037 28.656 15.0261 28.6668H13.3376C13.188 28.6668 13.0445 28.5611 12.9388 28.3728C12.833 28.1845 12.7736 27.9291 12.7736 27.6628C12.7736 27.3965 12.833 27.1411 12.9388 26.9528C13.0445 26.7645 13.188 26.6588 13.3376 26.6588H13.2854C13.4268 26.6389 13.5589 26.5248 13.6553 26.3393C13.7516 26.1538 13.8051 25.9104 13.8051 25.6578C13.8051 25.4051 13.7516 25.1617 13.6553 24.9762C13.5589 24.7907 13.4268 24.6767 13.2854 24.6568H4.0175C3.87127 24.6649 3.73264 24.7744 3.63115 24.962C3.52966 25.1496 3.4734 25.4005 3.47438 25.6609Z" fill="#F2F2F2"/>
<path d="M31.2815 10.0867C31.2815 10.2177 31.296 10.3474 31.3242 10.4685C31.3524 10.5896 31.3936 10.6996 31.4457 10.7922C31.4977 10.8849 31.5595 10.9584 31.6275 11.0086C31.6955 11.0587 31.7684 11.0845 31.842 11.0845L39.2333 11.0845C39.3829 11.0845 39.5264 11.1903 39.6322 11.3786C39.738 11.5669 39.7974 11.8223 39.7974 12.0886C39.7974 12.3549 39.738 12.6103 39.6322 12.7986C39.5264 12.9869 39.3829 13.0926 39.2333 13.0926L33.5689 13.0926C33.4913 13.0818 33.4134 13.0996 33.3399 13.145C33.2663 13.1903 33.1989 13.2622 33.1418 13.3563C33.0846 13.4503 33.0391 13.5643 33.0079 13.6912C32.9767 13.8181 32.9606 13.9551 32.9606 14.0936C32.9606 14.2321 32.9767 14.3691 33.0079 14.496C33.0391 14.6229 33.0846 14.7369 33.1418 14.8309C33.1989 14.925 33.2663 14.9969 33.3399 15.0423C33.4134 15.0877 33.4913 15.1054 33.5689 15.0945L42.8333 15.0945C42.9108 15.1054 42.9888 15.0877 43.0623 15.0423C43.1358 14.9969 43.2032 14.925 43.2604 14.8309C43.3175 14.7369 43.3631 14.6229 43.3943 14.496C43.4255 14.3691 43.4415 14.2321 43.4415 14.0936C43.4415 13.9551 43.4255 13.8181 43.3943 13.6912C43.3631 13.5643 43.3175 13.4503 43.2604 13.3563C43.2032 13.2622 43.1358 13.1903 43.0623 13.145C42.9888 13.0996 42.9108 13.0818 42.8333 13.0926H41.1447C40.9951 13.0926 40.8517 12.9869 40.7459 12.7986C40.6401 12.6103 40.5807 12.3549 40.5807 12.0886C40.5807 11.8223 40.6401 11.5669 40.7459 11.3786C40.8517 11.1903 40.9951 11.0845 41.1447 11.0845H41.0925C41.234 11.0647 41.3661 10.9506 41.4624 10.7651C41.5587 10.5795 41.6122 10.3362 41.6122 10.0836C41.6122 9.83088 41.5587 9.58749 41.4624 9.40199C41.3661 9.21648 41.234 9.10244 41.0925 9.08261L31.8246 9.08261C31.6784 9.09066 31.5398 9.20018 31.4383 9.38779C31.3368 9.5754 31.2805 9.82624 31.2815 10.0867Z" fill="#F2F2F2"/>
<path d="M0 17.8786C0 18.1446 0.0599812 18.3997 0.166732 18.5878C0.273483 18.7759 0.418255 18.8816 0.569245 18.8816H2.14346C2.29441 18.8816 2.43922 18.9873 2.54597 19.1754C2.65272 19.3635 2.7127 19.6187 2.7127 19.8847C2.7127 20.1507 2.65272 20.4058 2.54597 20.5939C2.43922 20.782 2.29441 20.8877 2.14346 20.8877H1.84829C1.70549 20.9075 1.57217 21.0215 1.47494 21.2068C1.37771 21.3921 1.32374 21.6352 1.32374 21.8876C1.32374 22.14 1.37771 22.3831 1.47494 22.5684C1.57217 22.7538 1.70549 22.8677 1.84829 22.8875H11.1987C11.277 22.8984 11.3556 22.8806 11.4299 22.8353C11.504 22.79 11.5721 22.7181 11.6298 22.6242C11.6874 22.5303 11.7334 22.4164 11.7649 22.2896C11.7964 22.1628 11.8126 22.026 11.8126 21.8876C11.8126 21.7492 11.7964 21.6124 11.7649 21.4857C11.7334 21.3589 11.6874 21.2449 11.6298 21.1511C11.5721 21.0571 11.504 20.9853 11.4299 20.9399C11.3556 20.8946 11.277 20.8768 11.1987 20.8877H4.08662C3.93563 20.8877 3.79086 20.782 3.68411 20.5939C3.57736 20.4058 3.51738 20.1507 3.51738 19.8847C3.51738 19.6187 3.57736 19.3635 3.68411 19.1754C3.79086 18.9873 3.93563 18.8816 4.08662 18.8816H9.91963C10.0706 18.8816 10.2154 18.7759 10.3221 18.5878C10.4289 18.3997 10.4889 18.1446 10.4889 17.8786C10.4889 17.6126 10.4289 17.3575 10.3221 17.1694C10.2154 16.9813 10.0706 16.8756 9.91963 16.8756H0.569245C0.418571 16.8772 0.274293 16.9834 0.167752 17.1712C0.061177 17.3589 0.000913604 17.6131 0 17.8786Z" fill="#F2F2F2"/>
<path d="M35.116 17.863C35.116 18.129 35.1759 18.3841 35.2827 18.5722C35.3895 18.7603 35.5342 18.866 35.6852 18.866H37.2594C37.4104 18.866 37.5552 18.9717 37.6619 19.1598C37.7687 19.3479 37.8287 19.603 37.8287 19.869C37.8287 20.1351 37.7687 20.3902 37.6619 20.5783C37.5552 20.7664 37.4104 20.8721 37.2594 20.8721H36.9643C36.8215 20.8919 36.6881 21.0059 36.5909 21.1912C36.4937 21.3765 36.4397 21.6196 36.4397 21.872C36.4397 22.1244 36.4937 22.3675 36.5909 22.5528C36.6881 22.7382 36.8215 22.8521 36.9643 22.8719L46.3146 22.8719C46.3929 22.8827 46.4716 22.865 46.5458 22.8197C46.62 22.7743 46.6881 22.7025 46.7457 22.6085C46.8034 22.5147 46.8494 22.4007 46.8809 22.2739C46.9123 22.1472 46.9286 22.0104 46.9286 21.872C46.9286 21.7336 46.9123 21.5968 46.8809 21.47C46.8494 21.3432 46.8034 21.2293 46.7457 21.1354C46.6881 21.0415 46.62 20.9696 46.5458 20.9243C46.4716 20.879 46.3929 20.8612 46.3146 20.8721L39.2026 20.8721C39.0516 20.8721 38.9068 20.7664 38.8001 20.5783C38.6933 20.3902 38.6333 20.1351 38.6333 19.869C38.6333 19.603 38.6933 19.3479 38.8001 19.1598C38.9068 18.9717 39.0516 18.866 39.2026 18.866L45.0356 18.866C45.1866 18.866 45.3314 18.7603 45.4381 18.5722C45.5449 18.3841 45.6048 18.129 45.6048 17.863C45.6048 17.597 45.5449 17.3418 45.4381 17.1537C45.3314 16.9656 45.1866 16.8599 45.0356 16.8599L35.6852 16.8599C35.5345 16.8616 35.3903 16.9677 35.2837 17.1555C35.1771 17.3433 35.1169 17.5975 35.116 17.863Z" fill="#F2F2F2"/>
<path d="M9.35972 2.29605C9.36066 2.55669 9.42052 2.80611 9.52625 2.98982C9.63199 3.17359 9.77504 3.27671 9.92412 3.27665H10.7289C10.8786 3.27665 11.0222 3.38062 11.128 3.56567C11.2338 3.75071 11.2933 4.00172 11.2933 4.2634C11.2933 4.52513 11.2338 4.77608 11.128 4.96119C11.0222 5.14623 10.8786 5.25015 10.7289 5.25015H8.46087C8.3112 5.25015 8.16762 5.35412 8.06178 5.53917C7.95594 5.72422 7.89647 5.97523 7.89647 6.2369C7.89647 6.49863 7.95594 6.74958 8.06178 6.93463C8.16762 7.11974 8.3112 7.22365 8.46087 7.22365L13.307 7.22365C13.4486 7.24314 13.5808 7.35528 13.6772 7.53758C13.7736 7.71995 13.8271 7.95908 13.8271 8.20742C13.8271 8.45569 13.7736 8.69482 13.6772 8.87718C13.5808 9.05949 13.4486 9.17163 13.307 9.19112H5.8932C5.74353 9.19112 5.59996 9.29503 5.49412 9.48014C5.38827 9.66519 5.3288 9.91613 5.3288 10.1779C5.3288 10.4395 5.38827 10.6906 5.49412 10.8756C5.59996 11.0606 5.74353 11.1646 5.8932 11.1646H11.0669C11.1445 11.1539 11.2225 11.1714 11.2961 11.216C11.3696 11.2606 11.4371 11.3313 11.4943 11.4237C11.5514 11.5161 11.5971 11.6281 11.6283 11.7528C11.6595 11.8775 11.6756 12.0122 11.6756 12.1483C11.6756 12.2844 11.6595 12.4191 11.6283 12.5438C11.5971 12.6684 11.5514 12.7805 11.4943 12.8729C11.4371 12.9653 11.3696 13.036 11.2961 13.0806C11.2225 13.1251 11.1445 13.1427 11.0669 13.132H3.69135C3.54168 13.132 3.39811 13.2359 3.29227 13.421C3.18642 13.606 3.12695 13.857 3.12695 14.1187C3.12695 14.3804 3.18642 14.6314 3.29227 14.8164C3.39811 15.0016 3.54168 15.1055 3.69135 15.1055H12.9621C13.1118 15.1055 13.2554 15.0016 13.3612 14.8164C13.467 14.6314 13.5265 14.3804 13.5265 14.1187C13.5265 13.857 13.467 13.606 13.3612 13.421C13.2554 13.2359 13.1118 13.132 12.9621 13.132H12.9935C12.8519 13.1125 12.7197 13.0004 12.6233 12.8181C12.5269 12.6357 12.4734 12.3966 12.4734 12.1483C12.4734 11.9 12.5269 11.6609 12.6233 11.4785C12.7197 11.2962 12.8519 11.1841 12.9935 11.1646H15.164C15.3136 11.1646 15.4572 11.0606 15.5631 10.8756C15.6689 10.6906 15.7284 10.4395 15.7284 10.1779C15.7284 9.91613 15.6689 9.66519 15.5631 9.48014C15.4572 9.29503 15.3136 9.19112 15.164 9.19112H15.2336C15.156 9.20178 15.078 9.18429 15.0044 9.13971C14.9309 9.09512 14.8634 9.02435 14.8062 8.93201C14.7491 8.8396 14.7035 8.72753 14.6722 8.60285C14.6411 8.47816 14.6249 8.34349 14.6249 8.20742C14.6249 8.07128 14.6411 7.93667 14.6722 7.81192C14.7035 7.68724 14.7491 7.57516 14.8062 7.48276C14.8634 7.39042 14.9309 7.31964 15.0044 7.27506C15.078 7.23047 15.156 7.21299 15.2336 7.22365H17.7316C17.8813 7.22365 18.0249 7.11974 18.1307 6.93463C18.2366 6.74958 18.296 6.49863 18.296 6.2369C18.296 5.97523 18.2366 5.72422 18.1307 5.53917C18.0249 5.35412 17.8813 5.25015 17.7316 5.25015L12.659 5.25015C12.5093 5.25015 12.3658 5.14623 12.2599 4.96119C12.1541 4.77608 12.0946 4.52513 12.0946 4.2634C12.0946 4.00172 12.1541 3.75071 12.2599 3.56567C12.3658 3.38062 12.5093 3.27665 12.659 3.27665L19.1949 3.27665C19.2725 3.28737 19.3505 3.26982 19.4241 3.22524C19.4976 3.18065 19.5651 3.11 19.6223 3.0176C19.6795 2.92519 19.7251 2.81312 19.7563 2.68843C19.7875 2.56375 19.8036 2.42908 19.8036 2.293C19.8036 2.15687 19.7875 2.02225 19.7563 1.89751C19.7251 1.77283 19.6795 1.66075 19.6223 1.56835C19.5651 1.47595 19.4976 1.40523 19.4241 1.36065C19.3505 1.31606 19.2725 1.29858 19.1949 1.3093L9.92064 1.3093C9.77156 1.31088 9.62889 1.41552 9.52378 1.60039C9.4187 1.78531 9.35972 2.03535 9.35972 2.29605Z" fill="#F2F2F2"/>
<path d="M33.3771 25.6437C33.378 25.9043 33.4378 26.1538 33.5436 26.3375C33.6493 26.5212 33.7924 26.6244 33.9415 26.6243H34.7462C34.8959 26.6243 35.0395 26.7283 35.1453 26.9133C35.2512 27.0984 35.3106 27.3494 35.3106 27.6111C35.3106 27.8728 35.2512 28.1237 35.1453 28.3088C35.0395 28.4939 34.8959 28.5978 34.7462 28.5978H32.4782C32.3285 28.5978 32.185 28.7018 32.0791 28.8868C31.9733 29.0719 31.9138 29.3229 31.9138 29.5846C31.9138 29.8463 31.9733 30.0972 32.0791 30.2823C32.185 30.4674 32.3285 30.5713 32.4782 30.5713L37.3244 30.5713C37.4659 30.5908 37.5981 30.7029 37.6945 30.8852C37.7909 31.0676 37.8444 31.3067 37.8444 31.5551C37.8444 31.8033 37.7909 32.0425 37.6945 32.2248C37.5981 32.4071 37.4659 32.5193 37.3244 32.5388H29.9105C29.7609 32.5388 29.6173 32.6427 29.5114 32.8278C29.4056 33.0128 29.3461 33.2638 29.3461 33.5255C29.3461 33.7872 29.4056 34.0382 29.5114 34.2233C29.6173 34.4083 29.7609 34.5123 29.9105 34.5123H35.0842C35.1618 34.5016 35.2398 34.5191 35.3134 34.5637C35.3869 34.6083 35.4544 34.6789 35.5116 34.7713C35.5688 34.8637 35.6144 34.9758 35.6456 35.1005C35.6768 35.2252 35.6929 35.3598 35.6929 35.496C35.6929 35.6321 35.6768 35.7667 35.6456 35.8914C35.6144 36.0161 35.5688 36.1282 35.5116 36.2206C35.4544 36.313 35.3869 36.3836 35.3134 36.4282C35.2398 36.4728 35.1618 36.4903 35.0842 36.4796H27.7087C27.559 36.4796 27.4154 36.5836 27.3096 36.7686C27.2038 36.9537 27.1443 37.2047 27.1443 37.4664C27.1443 37.7281 27.2038 37.9791 27.3096 38.1641C27.4154 38.3492 27.559 38.4531 27.7087 38.4531H36.9795C37.1292 38.4531 37.2727 38.3492 37.3785 38.1641C37.4844 37.9791 37.5438 37.7281 37.5438 37.4664C37.5438 37.2047 37.4844 36.9537 37.3785 36.7686C37.2727 36.5836 37.1292 36.4796 36.9795 36.4796H37.0108C36.8692 36.4601 36.737 36.3481 36.6406 36.1658C36.5443 35.9834 36.4907 35.7442 36.4907 35.496C36.4907 35.2476 36.5443 35.0085 36.6406 34.8261C36.737 34.6438 36.8692 34.5318 37.0108 34.5123H39.1813C39.331 34.5123 39.4745 34.4083 39.5804 34.2233C39.6862 34.0382 39.7457 33.7872 39.7457 33.5255C39.7457 33.2638 39.6862 33.0128 39.5804 32.8278C39.4745 32.6427 39.331 32.5388 39.1813 32.5388H39.251C39.1734 32.5494 39.0953 32.532 39.0218 32.4874C38.9482 32.4428 38.8807 32.372 38.8236 32.2797C38.7664 32.1873 38.7208 32.0752 38.6896 31.9505C38.6584 31.8258 38.6423 31.6911 38.6423 31.5551C38.6423 31.4189 38.6584 31.2843 38.6896 31.1596C38.7208 31.0349 38.7664 30.9228 38.8236 30.8304C38.8807 30.7381 38.9482 30.6673 39.0218 30.6227C39.0953 30.5781 39.1734 30.5606 39.251 30.5713H41.749C41.8987 30.5713 42.0422 30.4674 42.148 30.2823C42.2539 30.0972 42.3134 29.8463 42.3134 29.5846C42.3134 29.3229 42.2539 29.0719 42.148 28.8868C42.0422 28.7018 41.8987 28.5978 41.749 28.5978L36.6763 28.5978C36.5266 28.5978 36.3831 28.4939 36.2773 28.3088C36.1714 28.1237 36.1119 27.8728 36.1119 27.6111C36.1119 27.3494 36.1714 27.0984 36.2773 26.9133C36.3831 26.7283 36.5266 26.6243 36.6763 26.6243L43.2122 26.6243C43.2898 26.635 43.3679 26.6175 43.4414 26.5729C43.515 26.5283 43.5825 26.4577 43.6396 26.3653C43.6968 26.2729 43.7424 26.1608 43.7736 26.0361C43.8048 25.9114 43.8209 25.7767 43.8209 25.6407C43.8209 25.5045 43.8048 25.3699 43.7736 25.2452C43.7424 25.1205 43.6968 25.0084 43.6396 24.916C43.5825 24.8236 43.515 24.7529 43.4414 24.7083C43.3679 24.6637 43.2898 24.6462 43.2122 24.657L33.938 24.657C33.7889 24.6585 33.6462 24.7632 33.5411 24.948C33.436 25.133 33.3771 25.383 33.3771 25.6437Z" fill="#F2F2F2"/>
<defs>
<linearGradient id="paint0_linear_586_1729" x1="137.25" y1="0" x2="137.25" y2="40" gradientUnits="userSpaceOnUse">
<stop stop-color="#DC3838"/>
<stop offset="1" stop-color="#3E4DD2"/>
</linearGradient>
<linearGradient id="paint1_linear_586_1729" x1="23.3508" y1="18.1641" x2="23.3508" y2="21.6599" gradientUnits="userSpaceOnUse">
<stop stop-color="#DC3838"/>
<stop offset="1" stop-color="#3E4DD2"/>
</linearGradient>
<linearGradient id="paint2_linear_586_1729" x1="23.3472" y1="25.375" x2="23.3472" y2="28.8708" gradientUnits="userSpaceOnUse">
<stop stop-color="#DC3838"/>
<stop offset="1" stop-color="#3E4DD2"/>
</linearGradient>
<linearGradient id="paint3_linear_586_1729" x1="28.6143" y1="18.1641" x2="28.6143" y2="21.6599" gradientUnits="userSpaceOnUse">
<stop stop-color="#DC3838"/>
<stop offset="1" stop-color="#3E4DD2"/>
</linearGradient>
<linearGradient id="paint4_linear_586_1729" x1="23.3508" y1="10.8594" x2="23.3508" y2="14.3552" gradientUnits="userSpaceOnUse">
<stop stop-color="#DC3838"/>
<stop offset="1" stop-color="#3E4DD2"/>
</linearGradient>
<linearGradient id="paint5_linear_586_1729" x1="18.0454" y1="17.9648" x2="18.0454" y2="21.4607" gradientUnits="userSpaceOnUse">
<stop stop-color="#DC3838"/>
<stop offset="1" stop-color="#3E4DD2"/>
</linearGradient>
<linearGradient id="paint6_linear_586_1729" x1="26.0364" y1="14.5781" x2="26.0364" y2="25.2964" gradientUnits="userSpaceOnUse">
<stop stop-color="#DC3838"/>
<stop offset="1" stop-color="#3E4DD2"/>
</linearGradient>
<linearGradient id="paint7_linear_586_1729" x1="20.6062" y1="14.3711" x2="20.6062" y2="25.0787" gradientUnits="userSpaceOnUse">
<stop stop-color="#DC3838"/>
<stop offset="1" stop-color="#3E4DD2"/>
</linearGradient>
</defs>
</svg>
